<?xml version="1.0" encoding="UTF-8" standalone="no"?>
<!DOCTYPE svg PUBLIC "-//W3C//DTD SVG 1.1//EN" "http://www.w3.org/Graphics/SVG/1.1/DTD/svg11.dtd">
<svg width="100%" height="100%" viewBox="0 0 880 295" version="1.1" xmlns="http://www.w3.org/2000/svg" xmlns:xlink="http://www.w3.org/1999/xlink" xml:space="preserve" xmlns:serif="http://www.serif.com/" style="fill-rule:evenodd;clip-rule:evenodd;stroke-linejoin:round;stroke-miterlimit:2;">
    <g id="Artboard1" transform="matrix(0.962572,0,0,0.887962,-41.9562,-27.526)">
        <rect x="43.588" y="30.999" width="913.269" height="331.462" style="fill:none;"/>
        <clipPath id="_clip1">
            <rect x="43.588" y="30.999" width="913.269" height="331.462"/>
        </clipPath>
        <g clip-path="url(#_clip1)">
            <g id="QuestRex-Logo" serif:id="QuestRex Logo" transform="matrix(1.03888,0,0,1.12617,-36.5955,-44.6083)">
                <g id="uestRex" transform="matrix(0.928142,0,0,1.73339,236.575,-35.0119)">
                    <path d="M121.147,102.776C121.456,102.72 121.688,103.006 121.842,103.635C121.996,104.263 122.099,105.115 122.151,106.191C122.202,107.266 122.074,112.525 121.765,121.967C121.765,130.57 122.112,135.78 122.807,137.596C123.502,139.411 125.008,140.703 127.324,141.472C129.64,142.24 133.836,141.953 139.91,140.613L148.557,137.344L148.557,125.067C148.403,118.028 148.197,113.977 147.94,112.916C147.682,111.854 147.309,111.065 146.82,110.548C146.331,110.032 145.7,109.536 144.928,109.061C145.134,108.949 155.146,106.659 174.964,102.189C174.552,102.971 174.282,103.572 174.153,103.991C174.024,104.41 173.895,104.969 173.767,105.667C173.638,106.365 173.574,107.483 173.574,109.019L173.574,122.197C173.574,129.446 173.702,133.908 173.96,135.584C174.217,137.261 175.041,138.678 176.431,139.837C177.82,140.997 179.622,141.681 181.835,141.891C184.049,142.1 187.034,141.646 190.792,140.529L190.792,143.713L148.943,150.25L148.557,142.289C133.372,148.462 119.654,151.27 107.403,150.711C100.918,150.432 97.289,147.806 96.517,142.833C96.414,139.956 96.388,134.935 96.439,127.77C96.491,120.605 96.324,116.254 95.938,114.718C95.551,113.181 94.779,112.092 93.621,111.449C92.463,110.807 90.88,110.583 88.873,110.779C86.865,110.974 84.317,111.743 81.229,113.083L81.229,109.354L121.147,102.776Z" style="fill:rgb(143,35,162);fill-rule:nonzero;"/>
                    <path d="M228.855,139.02C232.098,142.764 237.708,145.264 245.687,146.521C249.084,146.521 251.169,145.676 251.941,143.986C252.713,142.296 252.868,139.83 252.404,136.59C258.993,135.165 266.688,133.154 275.491,130.556C275.491,136.562 274.783,140.236 273.367,141.576C271.952,142.917 266.38,145.389 256.651,148.993C250.731,151.228 244.451,152.177 237.811,151.842C226.693,151.339 218.714,150.152 213.876,148.281C209.037,146.409 205.653,143.839 203.722,140.571C201.792,137.302 200.827,133.853 200.827,130.221L200.827,114.215C204.688,112.567 208.497,111.023 212.254,109.585C216.012,108.146 221.108,105.96 227.542,103.027C241.492,102.748 251.169,103.062 256.574,103.97C261.978,104.878 267.383,106.812 272.788,109.773L272.788,117.525C264.604,119.899 256.432,122.553 248.273,125.486C240.115,128.419 232.895,131.101 226.616,133.531C226.976,135.598 227.722,137.428 228.855,139.02ZM249.239,117.525C247.9,115.961 246.317,114.606 244.49,113.461C242.663,112.315 240.835,111.372 239.008,110.632C237.181,109.892 234.98,109.382 232.406,109.103C229.833,108.823 227.619,108.865 225.766,109.229C225.56,112.022 225.483,114.941 225.535,117.986C225.586,121.031 225.483,123.545 225.226,125.528C241.08,120.109 249.084,117.441 249.239,117.525Z" style="fill:rgb(143,35,162);fill-rule:nonzero;"/>
                    <path d="M315.329,102.189L350.615,102.189L349.766,116.771C349.508,116.855 348.273,117.12 346.059,117.567C345.442,116.282 344.554,114.871 343.396,113.335C342.237,111.798 339.857,110.332 336.254,108.935C331.055,107.371 324.157,106.896 315.561,107.511C313.039,108.321 311.404,109.354 310.658,110.611C309.912,111.868 309.731,113.125 310.117,114.382C310.503,115.639 311.79,116.582 313.978,117.211C316.166,117.839 319.138,118.328 322.896,118.677C326.654,119.026 334.143,119.585 345.364,120.353C356.586,121.122 360.91,126.799 358.336,137.386L343.666,148.406C343.511,148.518 342.842,148.783 341.658,149.202C340.474,149.621 338.917,150.047 336.987,150.48C335.057,150.913 332.805,151.277 330.231,151.57C327.657,151.863 324.903,151.926 321.969,151.758C313.733,151.619 307.711,151.2 303.902,150.501C300.093,149.803 297.712,149.356 296.76,149.161C295.808,148.965 294.739,148.7 293.556,148.364C292.372,148.029 291.111,147.624 289.772,147.149C289.772,147.038 293.813,142.205 301.894,132.651L304.442,134.034C303.464,134.788 302.795,135.48 302.435,136.108C302.075,136.737 301.894,137.435 301.894,138.203C301.894,138.972 302.268,139.67 303.014,140.298C303.76,140.927 305.832,141.744 309.229,142.75C312.318,143.755 315.715,144.363 319.421,144.572C323.128,144.782 325.547,144.859 326.679,144.803C331.106,144.607 334.555,144.16 337.026,143.462C342.122,140.529 343.28,137.889 340.5,135.543C337.721,133.196 328.79,131.688 313.708,131.017C308.663,130.57 304.648,130.207 301.663,129.928C298.677,129.648 296.67,128.81 295.64,127.414C294.611,126.017 294.096,124.76 294.096,123.643L294.096,120.207L294.019,112.916L315.329,102.189Z" style="fill:rgb(143,35,162);fill-rule:nonzero;"/>
                    <path d="M438.093,142.792C423.371,146.283 413.437,149.286 408.289,151.8C399.745,148.309 394.636,146.179 392.963,145.41C391.29,144.642 389.939,143.874 388.909,143.106C387.88,142.338 387.043,141.283 386.4,139.942C385.757,138.601 385.306,136.395 385.049,133.322L385.049,108.642L366.595,108.642C369.838,106.714 372.618,104.983 374.934,103.446C375.758,103.446 377.096,103.327 378.949,103.09C380.802,102.853 382.81,102.245 384.972,101.267C387.133,100.29 389.656,97.734 392.538,93.599L412.227,88.445C411.146,92.3 410.606,96.044 410.606,99.675L410.606,103.111L426.743,103.111C436.369,103.111 443.807,102.175 449.057,100.304C443.807,104.717 440.435,107.497 438.942,108.642L410.606,108.642L410.606,126.366C410.606,128.629 410.915,131.227 411.532,134.16C412.304,135.417 412.884,136.206 413.27,136.527C413.656,136.849 414.08,137.205 414.544,137.596C415.007,137.987 415.625,138.371 416.397,138.748C417.169,139.125 418.456,139.844 420.257,140.906C424.735,139.342 428.261,137.959 430.835,136.758C433.409,135.557 435.828,133.434 438.093,130.389L438.093,142.792Z" style="fill:rgb(143,35,162);fill-rule:nonzero;"/>
                    <g transform="matrix(1.02738,0,0,1.03974,-21.8958,-2.113)">
                        <path d="M501.636,118.992C516.975,112.874 525.327,109.452 526.691,108.726C528.055,107.999 529.38,107.078 530.667,105.96C531.491,104.815 532.031,103.621 532.289,102.378C532.546,101.135 532.379,99.885 531.787,98.627C531.195,97.37 530.204,96.169 528.814,95.024C527.424,93.879 525.674,92.95 523.564,92.237C521.453,91.525 519.008,91.092 516.229,90.939C513.449,90.785 510.361,91.071 506.963,91.798C505.471,92.105 504.377,92.538 503.682,93.096C502.987,93.655 502.511,94.263 502.253,94.919C501.996,95.576 501.88,96.253 501.906,96.951C501.932,97.65 501.945,98.306 501.945,98.921L501.636,118.992ZM501.636,89.535L507.195,88.11C523.203,84.032 532.829,81.811 536.072,81.448C539.418,81.057 542.442,81.064 545.144,81.469C547.847,81.874 550.202,82.565 552.209,83.543C554.217,84.521 555.877,85.708 557.189,87.105C558.502,88.501 559.454,90.01 560.046,91.63C560.638,93.25 560.87,94.912 560.741,96.616C560.612,98.32 560.085,99.954 559.158,101.519C558.335,102.915 557.074,104.228 555.375,105.457C553.676,106.686 551.875,107.727 549.97,108.579C548.066,109.431 545.826,110.409 543.253,111.512C540.679,112.616 535.609,114.62 528.042,117.525C531.748,119.899 538.092,123.643 547.075,128.755C556.057,133.867 560.87,136.639 561.513,137.072C562.157,137.505 566.172,139.523 573.558,143.127C580.945,146.73 585.925,149.049 588.499,150.082C591.484,151.06 593.942,151.751 595.872,152.156C597.803,152.562 600.106,152.925 602.783,153.246C605.46,153.567 608.11,153.812 610.736,153.979C613.361,154.147 615.754,154.259 617.916,154.314L617.376,156.828L574.909,156.787C571.203,156.815 568.089,156.2 565.567,154.943C563.971,154.496 562.182,153.916 560.201,153.204C558.219,152.492 556.006,151.626 553.56,150.606C551.115,149.587 545.968,147.003 538.118,142.854C530.268,138.706 522.637,134.439 515.225,130.053L502.176,123.182L502.176,141.493C502.588,142.135 502.948,142.757 503.257,143.357C503.566,143.958 504.068,144.509 504.763,145.012C505.458,145.515 506.358,145.962 507.465,146.353C508.572,146.744 510.386,147.191 512.909,147.694C515.071,147.917 516.55,148.057 517.348,148.113C518.146,148.169 518.983,148.253 519.858,148.364C521.762,148.001 522.534,148.085 522.174,148.616C521.917,149.063 521.711,149.454 521.556,149.789C521.402,150.124 521.17,150.487 520.861,150.878C520.038,150.934 514.89,150.955 505.419,150.941C495.948,150.927 484.315,150.92 470.519,150.92L470.597,112.204L470.597,108.893C470.442,102.413 470.314,97.915 470.211,95.401C469.181,92.524 465.81,91.853 460.096,93.39L458.011,93.935L454.537,90.918C456.699,90.471 460.894,89.619 467.122,88.362C477.057,86.183 485.627,84.213 492.834,82.454L501.636,80.568L501.636,89.535Z" style="fill:rgb(143,35,162);fill-rule:nonzero;"/>
                    </g>
                    <g transform="matrix(1,0,0,1,-6.2192,0)">
                        <path d="M613.976,139.02C617.219,142.764 622.83,145.264 630.808,146.521C634.205,146.521 636.29,145.676 637.062,143.986C637.834,142.296 637.989,139.83 637.526,136.59C644.114,135.165 651.81,133.154 660.612,130.556C660.612,136.562 659.904,140.236 658.489,141.576C657.073,142.917 651.501,145.389 641.772,148.993C635.853,151.228 629.573,152.177 622.933,151.842C611.814,151.339 603.836,150.152 598.997,148.281C594.158,146.409 590.774,143.839 588.844,140.571C586.913,137.302 585.948,133.853 585.948,130.221L585.948,114.215C589.809,112.567 593.618,111.023 597.376,109.585C601.133,108.146 606.229,105.96 612.663,103.027C626.613,102.748 636.29,103.062 641.695,103.97C647.1,104.878 652.505,106.812 657.909,109.773L657.909,117.525C649.725,119.899 641.553,122.553 633.395,125.486C625.236,128.419 618.017,131.101 611.737,133.531C612.097,135.598 612.844,137.428 613.976,139.02ZM634.36,117.525C633.022,115.961 631.439,114.606 629.611,113.461C627.784,112.315 625.957,111.372 624.129,110.632C622.302,109.892 620.102,109.382 617.528,109.103C614.954,108.823 612.741,108.865 610.888,109.229C610.682,112.022 610.604,114.941 610.656,117.986C610.707,121.031 610.604,123.545 610.347,125.528C626.201,120.109 634.205,117.441 634.36,117.525Z" style="fill:rgb(143,35,162);fill-rule:nonzero;"/>
                    </g>
                    <g id="crown" transform="matrix(0.716137,0,0,0.43177,-39.2506,46.9524)">
                        <path d="M873.66,66.719L885.113,119.932L920.586,117.541L952.177,119.956L963.194,66.719L934.662,92.106L918.427,66.719L903.01,92.106L873.66,66.719Z" style="fill:rgb(143,35,162);"/>
                    </g>
                    <g transform="matrix(1,0,0,1,-6.2192,0)">
                        <path d="M773.261,145.348C765.591,146.744 757.471,148.057 748.901,149.286C740.33,150.515 735.093,151.06 733.188,150.92C731.541,150.725 730.254,150.313 729.328,149.684C728.401,149.056 720.423,142.428 705.392,129.802L699.37,134.746C697.774,136.087 696.822,137.079 696.513,137.721C696.204,138.364 696.049,139.09 696.049,139.9C696.049,140.71 696.307,141.486 696.822,142.226C697.336,142.966 698.121,143.574 699.177,144.049C700.232,144.523 701.519,144.817 703.037,144.928C704.556,145.04 706.319,144.873 708.326,144.426C708.583,144.509 709.034,144.67 709.677,144.908C710.321,145.145 710.694,145.292 710.797,145.348L687.479,150.459C685.832,150.878 684.352,151.039 683.039,150.941C681.727,150.844 680.607,150.564 679.681,150.103C678.754,149.642 678.059,149.028 677.596,148.26C677.133,147.491 676.914,146.653 676.94,145.746C676.965,144.838 677.274,143.881 677.866,142.875C678.458,141.87 679.372,140.864 680.607,139.858C682.306,138.518 684.056,137.226 685.858,135.983C687.659,134.739 692.421,131.716 700.142,126.911C687.273,116.771 680.144,111.17 678.754,110.108C676.592,109.326 674.675,108.97 673.002,109.04C671.329,109.11 667.97,109.815 662.926,111.156L662.926,108.39C666.529,107.999 672.114,107.168 679.681,105.897C687.247,104.626 692.009,103.823 693.965,103.488C695.921,103.153 697.027,103.013 697.285,103.069C698.829,103.153 699.974,103.453 700.721,103.97C701.467,104.487 703.179,105.765 705.855,107.804L726.702,123.643L735.041,118.363C737.152,116.827 738.374,115.514 738.709,114.424C739.043,113.335 738.979,112.357 738.516,111.491C738.053,110.625 737.345,109.948 736.392,109.459C735.44,108.97 734.153,108.705 732.532,108.663C730.91,108.621 728.942,108.949 726.625,109.648C725.699,109.312 724.965,109.033 724.425,108.809C723.884,108.586 723.563,108.446 723.46,108.39L746.083,103.32C747.73,102.901 749.21,102.741 750.522,102.839C751.835,102.936 752.942,103.216 753.842,103.677C754.743,104.137 755.425,104.752 755.888,105.52C756.352,106.288 756.57,107.126 756.545,108.034C756.519,108.942 756.223,109.899 755.657,110.905C755.091,111.91 754.215,112.888 753.032,113.838C751.333,115.234 749.531,116.526 747.627,117.714C745.722,118.901 743.419,120.074 740.716,121.233C738.014,122.393 734.835,124.062 731.181,126.24C745.233,137.33 752.517,142.917 753.032,143.001C754.936,144.23 757.24,144.845 759.942,144.845C762.644,144.845 764.703,144.705 766.119,144.426C767.534,144.146 768.821,143.797 769.98,143.378C771.138,142.959 772.36,142.289 773.647,141.367L773.261,145.348Z" style="fill:rgb(143,35,162);fill-rule:nonzero;"/>
                    </g>
                </g>
                <g id="Big-Q" serif:id="Big Q">
                    <path d="M263.315,327.366C257.09,322.407 252.841,322.291 246.831,317.229C241.786,320.121 234.434,325.131 224.775,332.259C222.628,333.189 218.415,333.653 212.136,333.653C205.858,333.653 195.903,333.499 182.272,333.189C174.437,332.672 163.864,330.606 150.555,326.991C137.247,323.375 125.225,316.997 114.492,307.855C103.759,298.713 95.146,286.911 88.653,272.449C82.159,257.988 78.912,240.634 78.912,220.387L78.912,132.997L148.624,73.807L150.555,72.723C158.605,69.934 164.562,68.333 168.426,67.92C172.29,67.506 177.12,67.145 182.916,66.835C197.405,66.215 212.566,68.074 228.397,72.413C244.228,76.751 257.322,83.492 267.68,92.634C278.037,101.775 286.275,113.629 292.393,128.194C298.511,142.759 301.569,160.061 301.569,180.101L302.052,273.534L279.996,290.423C359.421,348.27 359.188,341.337 364.018,343.403C368.848,345.469 373.866,347.251 379.071,348.748C384.277,350.246 389.456,351.331 394.607,352.002C399.759,352.674 405.019,352.751 410.385,352.235L403.14,362.461L320.871,359.827C315.505,359.517 309.119,357.71 301.713,354.404C295.38,351.615 282.581,342.602 263.315,327.366ZM263.315,327.366C263.315,327.366 263.315,327.366 263.315,327.366ZM142.828,107.431C142.828,188.21 143.257,232.37 144.116,239.911C144.974,247.451 146.906,254.14 149.912,259.976C152.917,265.813 156.673,271.158 161.181,276.013C168.802,284.277 175.51,290.01 181.306,293.212C187.102,296.415 192.334,298.765 197.003,300.262C201.672,301.76 208.326,302.587 216.966,302.742C225.606,302.897 232.771,301.528 238.459,298.635C236.957,202.155 235.749,151.074 234.837,145.393C233.924,139.712 232.878,135.89 231.697,133.927C226.438,124.733 219.301,117.838 210.285,113.241C201.269,108.645 192.871,105.675 185.089,104.332C177.308,102.989 170.841,102.473 165.689,102.783C160.537,103.092 152.917,104.642 142.828,107.431ZM279.069,221.485C281.941,221.854 283.996,220.922 286.401,221.871C290.115,223.338 292.934,230.975 290.261,236.15C289.212,238.182 288.938,238.355 286.401,239.625C286.158,239.745 285.747,240.359 285.63,240.396C283.607,241.027 280.47,241.061 278.683,240.782C277.062,240.529 276.018,239.284 274.438,239.238C273.046,242.181 276.082,244.02 275.596,247.342C272.948,248.411 270.607,247.294 268.649,247.342C266.566,247.394 264.753,248.666 262.861,247.342C263.198,244.336 264.367,242.16 264.404,238.853C260.839,240.15 254.569,240.736 252.054,238.853C247.531,233.156 248.649,219.663 260.158,221.485C260.827,219.772 260.159,217.884 260.544,216.468C260.6,216.263 261.273,215.841 261.317,215.697C261.416,215.369 261.167,214.844 261.317,214.539C261.4,214.366 262.024,214.295 262.088,214.153C262.511,213.216 262.83,212.842 264.404,211.837C266.365,210.585 270.207,208.988 273.666,210.294C273.857,210.366 273.901,210.994 274.052,211.065C274.352,211.208 274.93,210.893 275.209,211.065C276.779,212.034 278.625,214.962 279.069,216.854C279.379,218.178 279.167,219.737 279.069,221.485ZM109.598,214.276C111.367,214.501 111.398,212.987 112.3,212.347C114.529,210.832 116.644,209.201 120.404,210.031C120.609,210.076 121.034,210.76 121.176,210.803C121.476,210.894 122.07,210.643 122.334,210.803C124.621,212.186 127.205,217.118 126.194,221.223C125.433,224.305 123.103,228.485 121.176,231.257C120.5,232.231 120.052,232.834 119.247,233.958C118.168,235.463 116.692,236.529 115.387,238.204C114.919,238.804 114.649,239.462 113.844,240.133C113.099,240.753 112.204,242.352 111.142,242.835C109.63,241.805 107.307,240.017 105.354,238.589C104.708,238.117 103.945,237.897 103.424,237.432C102.26,236.391 101.129,234.519 99.95,233.187C97.682,230.62 96.013,229.596 94.547,226.24C93.485,223.804 92.779,220.691 93.776,216.977C93.831,216.772 94.504,216.351 94.547,216.205C94.933,214.932 95.131,213.951 96.091,213.119C97.986,211.477 102.268,209.428 106.126,210.417C107.377,211.609 108.351,213.08 109.598,214.276ZM112.112,171.815C111.646,174.217 113.602,177.525 114.042,180.305C109.96,180.383 108.498,180.591 104.78,180.305C105.093,177.273 105.47,174.306 106.324,171.815C104.515,172.275 103.504,173.86 101.307,174.13C95.98,174.787 91.923,171.082 91.659,167.183C91.584,166.07 91.751,163.989 92.044,162.552C92.085,162.352 92.785,161.534 92.816,161.394C92.922,160.922 92.657,160.306 92.816,159.851C92.942,159.493 93.682,159.287 93.974,158.694C94.286,158.059 94.066,157.292 94.36,156.763C94.889,155.811 95.745,154.914 96.29,154.062C99.297,149.359 104.631,142.083 108.253,139.397C108.703,139.335 108.941,139.482 109.025,139.783C111.832,140.809 114.756,144.245 117.129,146.729C118.379,148.037 119.261,148.983 120.603,150.589C121.374,151.511 121.713,152.352 122.532,153.676C122.883,154.243 123.407,154.358 123.69,154.834C124.931,156.922 126.248,159.655 126.392,161.781C126.732,166.816 123.885,171.537 119.445,173.744C116.991,173.755 114.379,172.982 112.112,171.815ZM286.99,159.065C286.73,160.401 285.496,160.752 284.674,161.766C283.938,162.676 283.494,163.92 282.744,164.854C280.91,167.14 278.83,168.951 276.956,171.414C276.627,171.846 276.552,172.478 276.184,172.958C275.553,173.786 274.577,174.412 273.868,175.274C273.748,175.42 274,175.914 273.868,176.046C273.538,176.376 273.027,176.466 272.71,176.818C272.402,177.16 271.914,177.587 271.553,177.975C270.845,178.737 270.351,179.973 269.237,180.291C267.377,179.735 266.862,177.332 265.378,176.046C264.868,175.604 264.49,175.03 263.834,174.117C263.068,173.048 262.211,171.731 261.133,170.257C260.1,168.844 258.714,166.772 257.273,164.854C254.824,161.591 252.212,160.287 255.344,156.365C255.661,155.967 256.215,155.58 256.502,155.206C260.521,149.956 265.747,144.836 270.009,140.155C270.292,139.794 270.711,139.57 271.167,139.383C271.479,139.456 271.552,139.771 271.939,139.769C274.648,145.292 279.858,148.316 282.358,154.048C284.104,155.52 285.478,157.362 286.99,159.065Z" style="fill:rgb(143,35,162);"/>
                </g>
            </g>
        </g>
    </g>
</svg>
